<svg width="48" height="48" viewBox="0 0 48 48" fill="none" xmlns="http://www.w3.org/2000/svg">
<g clip-path="url(#clip0_1224_146)">
<path d="M1.99918 33.6008H46.0008C46.6762 32.0593 47.1855 30.4502 47.52 28.8008H0.47998C0.814444 30.4502 1.32372 32.0593 1.99918 33.6008Z" fill="#009B43"/>
<path d="M24 14.3996H46.0008C45.2573 12.696 44.3173 11.0851 43.2 9.59961H24V14.3996Z" fill="#009B43"/>
<path d="M38.4 4.80003C34.2494 1.67727 29.1942 -0.00780127 24 2.71537e-05V4.80003H38.4Z" fill="#009B43"/>
<path d="M9.60005 43.2004H38.4001C40.2184 41.8347 41.8344 40.2187 43.2001 38.4004H4.80005C6.16573 40.2187 7.78173 41.8347 9.60005 43.2004Z" fill="#009B43"/>
<path d="M24 19.1992V23.9992H48C48.0007 22.3872 47.8399 20.7792 47.52 19.1992H24Z" fill="#009B43"/>
<path d="M2.20633e-06 24C-0.000687046 25.612 0.160116 27.22 0.480002 28.8H47.52C47.8399 27.22 48.0007 25.612 48 24H2.20633e-06Z" fill="#FFCF44"/>
<path d="M24 19.2004H47.52C47.1855 17.551 46.6763 15.9419 46.0008 14.4004H24V19.2004Z" fill="#FFCF44"/>
<path d="M24 9.60078H43.2C41.8343 7.78246 40.2183 6.16646 38.4 4.80078H24V9.60078Z" fill="#FFCF44"/>
<path d="M4.80007 38.3996H43.2001C44.3174 36.9141 45.2573 35.3032 46.0009 33.5996H1.99927C2.7428 35.3032 3.68276 36.9141 4.80007 38.3996Z" fill="#FFCF44"/>
<path d="M24.0001 47.9992C29.1942 48.007 34.2495 46.322 38.4001 43.1992H9.6001C13.7507 46.322 18.8059 48.007 24.0001 47.9992Z" fill="#FFCF44"/>
<path d="M9.6 4.80002C7.78168 6.1657 6.16568 7.7817 4.8 9.60002C2.66555 12.4398 1.18988 15.7191 0.480002 19.2C0.160116 20.78 -0.000687046 22.388 2.20633e-06 24H24V2.71536e-05C18.8058 -0.00780126 13.7506 1.67727 9.6 4.80002Z" fill="#213572"/>
<path d="M11.8104 8.43271L12.4368 10.3527C12.4486 10.3898 12.472 10.4222 12.5035 10.4451C12.535 10.468 12.5731 10.4802 12.612 10.4799H14.6256C14.6644 10.4802 14.7021 10.4928 14.7334 10.5157C14.7646 10.5387 14.7879 10.5709 14.7998 10.6078C14.8118 10.6447 14.8118 10.6844 14.7999 10.7213C14.7881 10.7583 14.7648 10.7905 14.7336 10.8135L13.104 11.9991C13.0729 12.0223 13.0499 12.0548 13.0383 12.0918C13.0266 12.1289 13.027 12.1687 13.0392 12.2055L13.6608 14.1255C13.6725 14.1624 13.6723 14.2021 13.6602 14.2389C13.6481 14.2757 13.6248 14.3078 13.5935 14.3306C13.5622 14.3534 13.5245 14.3658 13.4858 14.366C13.447 14.3663 13.4092 14.3543 13.3776 14.3319L11.76 13.1511C11.7289 13.1277 11.691 13.1151 11.652 13.1151C11.6131 13.1151 11.5752 13.1277 11.544 13.1511L9.91441 14.3343C9.88283 14.3567 9.84501 14.3687 9.80628 14.3684C9.76754 14.3682 9.72987 14.3558 9.69856 14.333C9.66726 14.3102 9.64392 14.2781 9.63184 14.2413C9.61975 14.2045 9.61953 14.1648 9.63121 14.1279L10.2528 12.2079C10.2652 12.1708 10.2654 12.1308 10.2533 12.0936C10.2412 12.0565 10.2174 12.0242 10.1856 12.0015L8.54641 10.8231C8.51518 10.8001 8.49197 10.7679 8.48008 10.7309C8.4682 10.694 8.46823 10.6543 8.48018 10.6174C8.49212 10.5805 8.51538 10.5483 8.54665 10.5253C8.57792 10.5024 8.61562 10.4898 8.65441 10.4895H10.668C10.7069 10.4894 10.7447 10.4771 10.7762 10.4543C10.8076 10.4314 10.8311 10.3992 10.8432 10.3623L11.4696 8.44231C11.4817 8.40673 11.5047 8.37584 11.5352 8.35396C11.5658 8.33208 11.6024 8.32031 11.64 8.32031C11.6776 8.32031 11.7142 8.33208 11.7448 8.35396C11.7754 8.37584 11.7983 8.40673 11.8104 8.44231" fill="#F0F0F0"/>
<path d="M17.1263 3.11972L17.7599 5.03972C17.7714 5.07706 17.7947 5.10966 17.8263 5.13261C17.8579 5.15555 17.8961 5.1676 17.9351 5.16692H19.9439C19.9897 5.1558 20.038 5.1626 20.079 5.18592C20.12 5.20925 20.1505 5.24734 20.1642 5.29241C20.178 5.33747 20.1741 5.38611 20.1532 5.42836C20.1323 5.47062 20.0961 5.5033 20.0519 5.51972L18.4223 6.70292C18.3908 6.72584 18.3673 6.75814 18.3552 6.79521C18.3432 6.83229 18.3431 6.87223 18.3551 6.90932L18.9767 8.82932C18.9894 8.86633 18.9898 8.90643 18.9779 8.94369C18.966 8.98095 18.9425 9.01341 18.9107 9.03627C18.879 9.05913 18.8408 9.07118 18.8016 9.07065C18.7625 9.07012 18.7246 9.05703 18.6935 9.03332L17.0639 7.83332C17.0323 7.81101 16.9946 7.79903 16.9559 7.79903C16.9173 7.79903 16.8795 7.81101 16.8479 7.83332L15.2207 9.01652C15.1894 9.03948 15.1515 9.05196 15.1127 9.05218C15.0738 9.05241 15.0358 9.04036 15.0042 9.01776C14.9725 8.99517 14.9488 8.96317 14.9364 8.92632C14.924 8.88947 14.9236 8.84965 14.9351 8.81252L15.5591 6.89252C15.5711 6.85543 15.5711 6.81549 15.559 6.77841C15.547 6.74134 15.5235 6.70904 15.4919 6.68612L13.8623 5.51972C13.8311 5.49672 13.8079 5.46447 13.796 5.42755C13.7841 5.39063 13.7841 5.3509 13.7961 5.314C13.808 5.27709 13.8313 5.24488 13.8626 5.22193C13.8938 5.19898 13.9315 5.18645 13.9703 5.18612H15.9839C16.0229 5.18641 16.0609 5.17422 16.0924 5.15133C16.124 5.12844 16.1473 5.09605 16.1591 5.05892L16.7999 3.11972C16.8114 3.08383 16.8339 3.05252 16.8644 3.03029C16.8948 3.00807 16.9315 2.99609 16.9691 2.99609C17.0068 2.99609 17.0435 3.00807 17.0739 3.03029C17.1043 3.05252 17.1269 3.08383 17.1383 3.11972" fill="#F0F0F0"/>
<path d="M17.1263 13.7486L17.7599 15.6806C17.772 15.7176 17.7955 15.7497 17.827 15.7726C17.8584 15.7954 17.8963 15.8077 17.9351 15.8078H19.9439C19.9827 15.8082 20.0204 15.8207 20.0517 15.8436C20.083 15.8666 20.1062 15.8988 20.1182 15.9357C20.1301 15.9726 20.1301 16.0123 20.1183 16.0493C20.1064 16.0862 20.0832 16.1184 20.0519 16.1414L18.4223 17.3246C18.391 17.3471 18.3676 17.379 18.3555 17.4157C18.3434 17.4523 18.3433 17.4919 18.3551 17.5286L18.9767 19.4486C18.9884 19.4856 18.9882 19.5252 18.9761 19.562C18.964 19.5988 18.9407 19.6309 18.9094 19.6537C18.8781 19.6765 18.8404 19.6889 18.8017 19.6892C18.7629 19.6894 18.7251 19.6775 18.6935 19.655L17.0639 18.479C17.0323 18.4567 16.9946 18.4447 16.9559 18.4447C16.9173 18.4447 16.8795 18.4567 16.8479 18.479L15.2207 19.6622C15.1883 19.6901 15.1473 19.7059 15.1045 19.7069C15.0618 19.7079 15.0201 19.6941 14.9864 19.6678C14.9527 19.6415 14.9292 19.6043 14.9198 19.5626C14.9105 19.5209 14.9159 19.4772 14.9351 19.439L15.5591 17.519C15.5711 17.4819 15.5711 17.442 15.559 17.4049C15.547 17.3678 15.5235 17.3355 15.4919 17.3126L13.8623 16.1294C13.8311 16.1064 13.8079 16.0742 13.796 16.0373C13.7841 16.0003 13.7841 15.9606 13.7961 15.9237C13.808 15.8868 13.8313 15.8546 13.8626 15.8316C13.8938 15.8087 13.9315 15.7962 13.9703 15.7958H15.9839C16.0227 15.7954 16.0604 15.7829 16.0918 15.7601C16.1232 15.7373 16.1467 15.7054 16.1591 15.6686L16.7999 13.7486C16.8114 13.7127 16.8339 13.6814 16.8644 13.6592C16.8948 13.637 16.9315 13.625 16.9691 13.625C17.0068 13.625 17.0435 13.637 17.0739 13.6592C17.1043 13.6814 17.1269 13.7127 17.1383 13.7486" fill="#F0F0F0"/>
<path d="M6.49205 13.7489L7.12085 15.6809C7.13328 15.7176 7.15681 15.7496 7.1882 15.7724C7.21958 15.7952 7.25727 15.8077 7.29605 15.8081H9.30965C9.34844 15.8084 9.38614 15.821 9.41741 15.8439C9.44869 15.8669 9.47194 15.8991 9.48389 15.936C9.49584 15.9729 9.49587 16.0126 9.48398 16.0495C9.47209 16.0865 9.44889 16.1187 9.41765 16.1417L7.78805 17.3249C7.75671 17.3474 7.73332 17.3793 7.72124 17.416C7.70917 17.4526 7.70903 17.4922 7.72085 17.5289L8.34485 19.4489C8.35718 19.4862 8.35731 19.5264 8.34522 19.5638C8.33314 19.6012 8.30946 19.6337 8.27764 19.6567C8.24581 19.6797 8.20749 19.692 8.16822 19.6917C8.12895 19.6915 8.09079 19.6787 8.05925 19.6553L6.43205 18.4793C6.39996 18.4571 6.36187 18.4452 6.32285 18.4452C6.28384 18.4452 6.24574 18.4571 6.21365 18.4793L4.58645 19.6625C4.55388 19.689 4.51327 19.7035 4.47131 19.7038C4.42935 19.7041 4.38853 19.6902 4.35557 19.6642C4.32262 19.6382 4.29948 19.6018 4.28997 19.5609C4.28046 19.5201 4.28515 19.4772 4.30325 19.4393L4.92485 17.5193C4.93686 17.4822 4.93682 17.4423 4.92475 17.4052C4.91268 17.3681 4.88919 17.3358 4.85765 17.3129L3.22805 16.1297C3.19682 16.1067 3.17361 16.0745 3.16172 16.0375C3.14984 16.0006 3.14987 15.9609 3.16182 15.924C3.17376 15.8871 3.19702 15.8549 3.22829 15.8319C3.25956 15.809 3.29726 15.7964 3.33605 15.7961H5.34965C5.38852 15.796 5.42638 15.7837 5.45783 15.7609C5.48929 15.738 5.51274 15.7058 5.52485 15.6689L6.15365 13.7369C6.1651 13.701 6.18766 13.6697 6.21808 13.6475C6.24849 13.6253 6.28518 13.6133 6.32285 13.6133C6.36052 13.6133 6.39721 13.6253 6.42763 13.6475C6.45804 13.6697 6.48061 13.701 6.49205 13.7369" fill="#F0F0F0"/>
</g>
<defs>
<clipPath id="clip0_1224_146">
<rect width="48" height="48" fill="white"/>
</clipPath>
</defs>
</svg>
